# xmcd CD database file
#
# Track frame offsets:
#	150
#	3947
#	15756
#	46995
#	110724
#	180332
#	182820
#	188781
#	293274
#
# Disc length: 4268 seconds
#
# Revision: 0
# Processed by: cddbd v1.5.1PL2 Copyright (c) Steve Scherf et al.
# Submitted via: CDex 1.51
#
DISCID=6210aa09
DTITLE=Cheri Huber - Unconditional Self-Acceptance #1
DYEAR=2005
DGENRE=New Age
TTITLE0=Introduction: Your Authentic Nature
TTITLE1=Your Authentic Nature
TTITLE2=Contemplation and Examination
TTITLE3=Guided Imagery to Explore Your Emotions
TTITLE4=Our Emotional Conditioning
TTITLE5=Childhood Conditioning: Introduction
TTITLE6=Your Childhood Conditioning
TTITLE7=Guided Imagery to Explore Your Conditioning
TTITLE8=Assignments for this Session
EXTD=YEAR: 2005
EXTT0=
EXTT1=
EXTT2=
EXTT3=
EXTT4=
EXTT5=
EXTT6=
EXTT7=
EXTT8=
PLAYORDER=
